<?xml version="1.0" encoding="utf-8"?>
<!-- Generator: Adobe Illustrator 12.0.1, SVG Export Plug-In . SVG Version: 6.00 Build 51448)  -->
<!DOCTYPE svg PUBLIC "-//W3C//DTD SVG 1.1//EN" "http://www.w3.org/Graphics/SVG/1.1/DTD/svg11.dtd" [
	<!ENTITY ns_svg "http://www.w3.org/2000/svg">
	<!ENTITY ns_xlink "http://www.w3.org/1999/xlink">
]>
<svg  version="1.1" id="Layer_1" xmlns="&ns_svg;" xmlns:xlink="&ns_xlink;" width="109.926" height="49" viewBox="0 0 109.926 49"
	 overflow="visible" enable-background="new 0 0 109.926 49" xml:space="preserve">
<g>
	<rect x="0.898" y="0.5" opacity="0" fill="#6C5635" stroke="#000000" width="108.391" height="48"/>
	<g id="XMLID_4_">
		<g>
			<polygon fill="#BCBEC0" points="108.097,27.934 55.147,42.458 2.227,26.903 55.169,12.379 			"/>
		</g>
		<g>
			<polygon fill="none" stroke="#000000" points="108.097,27.934 55.147,42.458 2.227,26.903 55.169,12.379 			"/>
		</g>
	</g>
	<g id="XMLID_3_">
		<g>
			<polygon fill="#808284" points="107.7,24.649 54.758,39.169 1.83,23.615 54.772,9.094 			"/>
		</g>
		<g>
			<polygon fill="none" stroke="#000000" points="107.7,24.649 54.758,39.169 1.83,23.615 54.772,9.094 			"/>
		</g>
	</g>
	<g id="XMLID_2_">
		<g>
			<polygon fill="#0071BC" points="108.097,20.714 55.147,35.238 2.227,19.684 55.169,5.16 			"/>
		</g>
		<g>
			<polygon fill="none" stroke="#000000" points="108.097,20.714 55.147,35.238 2.227,19.684 55.169,5.16 			"/>
		</g>
	</g>
	<g id="XMLID_1_">
		<g>
			<polygon fill="#008FD4" points="108.097,16.266 55.155,30.787 2.227,15.232 55.169,0.711 			"/>
		</g>
		<g>
			<polygon fill="none" stroke="#000000" points="108.097,16.266 55.155,30.787 2.227,15.232 55.169,0.711 			"/>
		</g>
	</g>
</g>
</svg>
